<svg width="28" height="24" viewBox="0 0 28 24" fill="none" xmlns="http://www.w3.org/2000/svg">
<path d="M9 12C10.1046 12 11 11.1046 11 10C11 8.89543 10.1046 8 9 8C7.89543 8 7 8.89543 7 10C7 11.1046 7.89543 12 9 12Z" stroke="white" stroke-width="2" stroke-linecap="round" stroke-linejoin="round"/>
<path d="M25 12.6716L21.914 9.58557C21.5389 9.21063 21.0303 9 20.5 9C19.9697 9 19.4611 9.21063 19.086 9.58557L10 18.6716" stroke="white" stroke-width="2" stroke-linecap="round" stroke-linejoin="round"/>
<path d="M23 5H5C4 5 3 6 3 7V17C3 18 4 19 5 19H23C24 19 25 18 25 17V7C25 6 24 5 23 5Z" stroke="white" stroke-width="2" stroke-linecap="round" stroke-linejoin="round"/>
</svg>
