<svg width="4000" height="4000" viewBox="0 0 4000 4000" fill="none" xmlns="http://www.w3.org/2000/svg">
<g filter="url(#filter0_d_441_276)">
<path d="M2600 800C2931.37 800 3200 1068.63 3200 1400V2400C3200 2841.83 2841.83 3200 2400 3200H1400C1068.63 3200 800 2931.37 800 2600V1400C800 1068.63 1068.63 800 1400 800H2600ZM1422.08 1072V2928.93H1757.28V2033.89L1909.78 2928.91H2087.96L2238.3 2033.89V2928.91H2575.88C2575.98 2010.48 2575.98 2000.56 2576.12 1101.75L2576.12 1072H2150.6L1997.19 2031.41L1847.77 1072H1422.08Z" fill="white"/>
<path d="M3200 3150C3200 3177.61 3177.61 3200 3150 3200H2812.72C2978.53 3114.28 3114.28 2978.53 3200 2812.72V3150ZM2960.09 2971.22C2959.8 2971.5 2959.52 2971.78 2959.24 2972.05C2959.52 2971.78 2959.8 2971.5 2960.09 2971.22ZM2962.13 2969.21C2961.93 2969.41 2961.73 2969.61 2961.52 2969.81C2961.73 2969.61 2961.93 2969.41 2962.13 2969.21ZM2964.31 2967.05C2964.17 2967.19 2964.04 2967.32 2963.9 2967.46C2964.04 2967.32 2964.17 2967.19 2964.31 2967.05ZM2971.42 2959.89C2971.29 2960.02 2971.16 2960.15 2971.03 2960.29C2971.16 2960.15 2971.29 2960.02 2971.42 2959.89ZM2975.73 2955.45C2974.77 2956.45 2973.81 2957.44 2972.84 2958.43L2975.73 2955.45ZM2000.01 2049.1C2000.01 2049.1 2000.01 2049.09 2000.01 2049.09C2000.01 2049.04 2000.01 2049 2000.01 2048.95C2000.01 2048.94 2000.01 2048.92 2000.01 2048.91C2000.01 2048.98 2000.01 2049.04 2000.01 2049.1ZM2000.03 2048.23C2000.03 2048.17 2000.03 2048.12 2000.04 2048.06C2000.04 2048.01 2000.04 2047.97 2000.04 2047.92C2000.04 2047.92 2000.04 2047.91 2000.04 2047.9C2000.04 2048.01 2000.04 2048.12 2000.03 2048.23ZM2000.07 2047.34C2000.07 2047.28 2000.08 2047.22 2000.08 2047.15C2000.08 2047.11 2000.08 2047.08 2000.09 2047.04C2000.09 2047.02 2000.09 2047.01 2000.09 2047C2000.08 2047.11 2000.08 2047.23 2000.07 2047.34ZM3152.64 2000.07C3152.92 2000.08 3153.2 2000.1 3153.48 2000.12C3153.17 2000.1 3152.86 2000.08 3152.54 2000.06C3152.58 2000.06 3152.61 2000.06 3152.64 2000.07Z" fill="white"/>
</g>
<defs>
<filter id="filter0_d_441_276" x="800" y="800" width="2540" height="2580" filterUnits="userSpaceOnUse" color-interpolation-filters="sRGB">
<feFlood flood-opacity="0" result="BackgroundImageFix"/>
<feColorMatrix in="SourceAlpha" type="matrix" values="0 0 0 0 0 0 0 0 0 0 0 0 0 0 0 0 0 0 127 0" result="hardAlpha"/>
<feOffset dx="80" dy="120"/>
<feGaussianBlur stdDeviation="30"/>
<feComposite in2="hardAlpha" operator="out"/>
<feColorMatrix type="matrix" values="0 0 0 0 0 0 0 0 0 0 0 0 0 0 0 0 0 0 0.8 0"/>
<feBlend mode="normal" in2="BackgroundImageFix" result="effect1_dropShadow_441_276"/>
<feBlend mode="normal" in="SourceGraphic" in2="effect1_dropShadow_441_276" result="shape"/>
</filter>
</defs>
</svg>
