<svg width="2000" height="2000" viewBox="0 0 2000 2000" fill="none" xmlns="http://www.w3.org/2000/svg">
<g clip-path="url(#clip0_220_52)">
<path d="M2000 0H0V2000H2000V0Z" fill="#EA2328"/>
<path fill-rule="evenodd" clip-rule="evenodd" d="M524.013 371.826H1475.99C1556.27 371.826 1621.62 437.232 1621.62 518.264V1793.61L1468.88 1658.54L1382.92 1578.92L1291.99 1494.33L1329.63 1625.85H524.013C443.735 1625.85 378.378 1560.44 378.378 1479.39V518.264C378.378 437.232 443.735 371.826 524.013 371.826Z" fill="white"/>
<path d="M998.593 1001.54L1075.3 521.835H1288.06L1288.06 536.712C1287.99 986.115 1287.99 991.073 1287.94 1450.29H1119.15V1002.78L1043.98 1450.29H954.89L878.641 1002.78V1450.3H711.041V521.835H923.883L998.593 1001.54Z" fill="black"/>
</g>
<defs>
<clipPath id="clip0_220_52">
<rect width="2000" height="2000" fill="white"/>
</clipPath>
</defs>
</svg>
